<svg xmlns="http://www.w3.org/2000/svg" xmlns:xlink="http://www.w3.org/1999/xlink" width="158" zoomAndPan="magnify" viewBox="0 0 118.5 30.000001" height="40" preserveAspectRatio="xMidYMid meet" version="1.0"><defs><g/><clipPath id="0f9f1d7af0"><path d="M 57 29 L 58 29 L 58 29.03125 L 57 29.03125 Z M 57 29 " clip-rule="nonzero"/></clipPath><clipPath id="e84bcbef9c"><path d="M 13 11 L 33 11 L 33 27.566406 L 13 27.566406 Z M 13 11 " clip-rule="nonzero"/></clipPath><clipPath id="6355d71791"><path d="M 10.375 2.054688 L 35.886719 2.054688 L 35.886719 24 L 10.375 24 Z M 10.375 2.054688 " clip-rule="nonzero"/></clipPath></defs><g fill="#006df0" fill-opacity="1"><g transform="translate(78.348841, 16.651189)"><g><path d="M -0.140625 -6.265625 L 4.734375 -6.265625 L 4.734375 -5.0625 L 2.953125 -5.078125 L 2.984375 0 L 1.578125 0 L 1.609375 -5.078125 L -0.140625 -5.0625 Z M -0.140625 -6.265625 "/></g></g></g><g fill="#006df0" fill-opacity="1"><g transform="translate(84.201231, 16.651189)"><g><path d="M 0.734375 0 L 0.734375 -6.265625 L 4.5 -6.265625 L 4.5 -5.078125 L 2.125 -5.109375 L 2.09375 -3.765625 L 4.28125 -3.765625 L 4.28125 -2.59375 L 2.09375 -2.59375 L 2.125 -1.171875 L 4.5 -1.203125 L 4.5 0 Z M 0.734375 0 "/></g></g></g><g fill="#006df0" fill-opacity="1"><g transform="translate(90.365841, 16.651189)"><g><path d="M 4.796875 -5.015625 C 4.054688 -5.109375 3.488281 -5.15625 3.09375 -5.15625 C 2.707031 -5.15625 2.445312 -5.101562 2.3125 -5 C 2.039062 -4.78125 1.90625 -4.128906 1.90625 -3.046875 C 1.90625 -2.554688 1.945312 -2.148438 2.03125 -1.828125 C 2.125 -1.515625 2.234375 -1.3125 2.359375 -1.21875 C 2.484375 -1.125 2.671875 -1.078125 2.921875 -1.078125 C 3.179688 -1.078125 3.460938 -1.117188 3.765625 -1.203125 C 4.066406 -1.285156 4.410156 -1.398438 4.796875 -1.546875 L 5.203125 -0.5 C 5.128906 -0.445312 5.023438 -0.382812 4.890625 -0.3125 C 4.765625 -0.25 4.507812 -0.160156 4.125 -0.046875 C 3.738281 0.0546875 3.359375 0.109375 2.984375 0.109375 C 2.179688 0.109375 1.554688 -0.144531 1.109375 -0.65625 C 0.671875 -1.164062 0.453125 -1.972656 0.453125 -3.078125 C 0.453125 -4.117188 0.617188 -4.898438 0.953125 -5.421875 C 1.097656 -5.671875 1.285156 -5.867188 1.515625 -6.015625 C 1.753906 -6.160156 2 -6.257812 2.25 -6.3125 C 2.507812 -6.363281 2.78125 -6.390625 3.0625 -6.390625 C 3.34375 -6.390625 3.671875 -6.363281 4.046875 -6.3125 C 4.421875 -6.269531 4.722656 -6.222656 4.953125 -6.171875 Z M 4.796875 -5.015625 "/></g></g></g><g fill="#006df0" fill-opacity="1"><g transform="translate(97.128131, 16.651189)"><g><path d="M 0.734375 0 L 0.734375 -6.265625 L 2.140625 -6.265625 L 2.109375 -3.78125 L 4.1875 -3.78125 L 4.15625 -6.265625 L 5.5625 -6.265625 L 5.5625 0 L 4.15625 0 L 4.1875 -2.59375 L 2.109375 -2.59375 L 2.140625 0 Z M 0.734375 0 "/></g></g></g><g fill="#d9d9d9" fill-opacity="1"><g transform="translate(37.609101, 16.785868)"><g><path d="M 2.46875 -5.140625 C 2.28125 -5.140625 2.128906 -5.101562 2.015625 -5.03125 C 1.910156 -4.957031 1.859375 -4.832031 1.859375 -4.65625 C 1.859375 -4.476562 1.929688 -4.332031 2.078125 -4.21875 C 2.234375 -4.101562 2.40625 -4 2.59375 -3.90625 C 2.78125 -3.820312 2.941406 -3.75 3.078125 -3.6875 C 3.222656 -3.625 3.332031 -3.570312 3.40625 -3.53125 C 3.488281 -3.5 3.597656 -3.445312 3.734375 -3.375 C 3.867188 -3.300781 3.972656 -3.234375 4.046875 -3.171875 C 4.117188 -3.109375 4.203125 -3.023438 4.296875 -2.921875 C 4.398438 -2.828125 4.476562 -2.734375 4.53125 -2.640625 C 4.65625 -2.378906 4.71875 -2.101562 4.71875 -1.8125 C 4.71875 -1.238281 4.507812 -0.773438 4.09375 -0.421875 C 3.675781 -0.0664062 3.132812 0.109375 2.46875 0.109375 C 2.132812 0.109375 1.785156 0.0664062 1.421875 -0.015625 C 1.054688 -0.109375 0.78125 -0.203125 0.59375 -0.296875 L 0.296875 -0.4375 C 0.304688 -0.476562 0.328125 -0.539062 0.359375 -0.625 C 0.390625 -0.726562 0.484375 -1.035156 0.640625 -1.546875 C 1.367188 -1.253906 2.039062 -1.109375 2.65625 -1.109375 C 2.820312 -1.109375 2.96875 -1.144531 3.09375 -1.21875 C 3.21875 -1.300781 3.28125 -1.484375 3.28125 -1.765625 C 3.28125 -1.890625 3.242188 -1.988281 3.171875 -2.0625 C 3.109375 -2.132812 3.050781 -2.1875 3 -2.21875 C 2.957031 -2.257812 2.890625 -2.300781 2.796875 -2.34375 C 2.703125 -2.394531 2.625 -2.4375 2.5625 -2.46875 C 2.425781 -2.53125 2.175781 -2.644531 1.8125 -2.8125 C 1.457031 -2.988281 1.203125 -3.140625 1.046875 -3.265625 C 0.628906 -3.585938 0.421875 -4.019531 0.421875 -4.5625 C 0.421875 -5.113281 0.613281 -5.550781 1 -5.875 C 1.382812 -6.207031 1.929688 -6.375 2.640625 -6.375 C 2.890625 -6.375 3.171875 -6.347656 3.484375 -6.296875 C 3.796875 -6.253906 4.128906 -6.179688 4.484375 -6.078125 L 4.265625 -4.9375 C 3.554688 -5.070312 2.957031 -5.140625 2.46875 -5.140625 Z M 2.46875 -5.140625 "/></g></g></g><g fill="#d9d9d9" fill-opacity="1"><g transform="translate(44.003628, 16.785868)"><g><path d="M 1.3125 0 L -0.09375 0 L 1.6875 -6.265625 L 3.359375 -6.265625 L 5.15625 0 L 3.734375 0 L 3.390625 -1.390625 L 1.671875 -1.390625 Z M 3.125 -2.5625 L 2.5625 -4.984375 L 2.5 -4.984375 L 1.9375 -2.5625 Z M 3.125 -2.5625 "/></g></g></g><g fill="#d9d9d9" fill-opacity="1"><g transform="translate(50.42487, 16.785868)"><g><path d="M 0.734375 -6.265625 L 2.484375 -6.265625 L 4.421875 -1.8125 L 4.46875 -1.8125 L 4.359375 -6.265625 L 5.65625 -6.265625 L 5.65625 0 L 3.90625 0 L 1.984375 -4.4375 L 1.921875 -4.4375 L 2.03125 0 L 0.734375 0 Z M 0.734375 -6.265625 "/></g></g></g><g fill="#d9d9d9" fill-opacity="1"><g transform="translate(58.119576, 16.785868)"><g><path d="M -0.140625 -6.265625 L 4.734375 -6.265625 L 4.734375 -5.046875 L 2.953125 -5.078125 L 2.96875 0 L 1.578125 0 L 1.609375 -5.078125 L -0.140625 -5.046875 Z M -0.140625 -6.265625 "/></g></g></g><g fill="#d9d9d9" fill-opacity="1"><g transform="translate(64.033213, 16.785868)"><g><path d="M 4.15625 -0.03125 C 3.851562 0.0625 3.503906 0.109375 3.109375 0.109375 C 2.722656 0.109375 2.378906 0.0625 2.078125 -0.03125 C 1.773438 -0.125 1.5 -0.285156 1.25 -0.515625 C 0.71875 -0.992188 0.453125 -1.867188 0.453125 -3.140625 C 0.453125 -4.578125 0.816406 -5.53125 1.546875 -6 C 1.941406 -6.25 2.46875 -6.375 3.125 -6.375 C 4.132812 -6.375 4.847656 -6.054688 5.265625 -5.421875 C 5.617188 -4.890625 5.796875 -4.128906 5.796875 -3.140625 C 5.796875 -1.867188 5.523438 -0.992188 4.984375 -0.515625 C 4.734375 -0.285156 4.457031 -0.125 4.15625 -0.03125 Z M 2.40625 -5 C 2.25 -4.90625 2.125 -4.710938 2.03125 -4.421875 C 1.9375 -4.128906 1.890625 -3.695312 1.890625 -3.125 C 1.890625 -2.5625 1.9375 -2.128906 2.03125 -1.828125 C 2.125 -1.535156 2.25 -1.34375 2.40625 -1.25 C 2.570312 -1.15625 2.804688 -1.109375 3.109375 -1.109375 C 3.421875 -1.109375 3.65625 -1.15625 3.8125 -1.25 C 4.164062 -1.457031 4.34375 -2.082031 4.34375 -3.125 C 4.34375 -4.1875 4.171875 -4.8125 3.828125 -5 C 3.660156 -5.09375 3.421875 -5.140625 3.109375 -5.140625 C 2.804688 -5.140625 2.570312 -5.09375 2.40625 -5 Z M 2.40625 -5 "/></g></g></g><g fill="#d9d9d9" fill-opacity="1"><g transform="translate(71.585433, 16.785868)"><g><path d="M 2.46875 -5.140625 C 2.28125 -5.140625 2.128906 -5.101562 2.015625 -5.03125 C 1.910156 -4.957031 1.859375 -4.832031 1.859375 -4.65625 C 1.859375 -4.476562 1.929688 -4.332031 2.078125 -4.21875 C 2.234375 -4.101562 2.40625 -4 2.59375 -3.90625 C 2.78125 -3.820312 2.941406 -3.75 3.078125 -3.6875 C 3.222656 -3.625 3.332031 -3.570312 3.40625 -3.53125 C 3.488281 -3.5 3.597656 -3.445312 3.734375 -3.375 C 3.867188 -3.300781 3.972656 -3.234375 4.046875 -3.171875 C 4.117188 -3.109375 4.203125 -3.023438 4.296875 -2.921875 C 4.398438 -2.828125 4.476562 -2.734375 4.53125 -2.640625 C 4.65625 -2.378906 4.71875 -2.101562 4.71875 -1.8125 C 4.71875 -1.238281 4.507812 -0.773438 4.09375 -0.421875 C 3.675781 -0.0664062 3.132812 0.109375 2.46875 0.109375 C 2.132812 0.109375 1.785156 0.0664062 1.421875 -0.015625 C 1.054688 -0.109375 0.78125 -0.203125 0.59375 -0.296875 L 0.296875 -0.4375 C 0.304688 -0.476562 0.328125 -0.539062 0.359375 -0.625 C 0.390625 -0.726562 0.484375 -1.035156 0.640625 -1.546875 C 1.367188 -1.253906 2.039062 -1.109375 2.65625 -1.109375 C 2.820312 -1.109375 2.96875 -1.144531 3.09375 -1.21875 C 3.21875 -1.300781 3.28125 -1.484375 3.28125 -1.765625 C 3.28125 -1.890625 3.242188 -1.988281 3.171875 -2.0625 C 3.109375 -2.132812 3.050781 -2.1875 3 -2.21875 C 2.957031 -2.257812 2.890625 -2.300781 2.796875 -2.34375 C 2.703125 -2.394531 2.625 -2.4375 2.5625 -2.46875 C 2.425781 -2.53125 2.175781 -2.644531 1.8125 -2.8125 C 1.457031 -2.988281 1.203125 -3.140625 1.046875 -3.265625 C 0.628906 -3.585938 0.421875 -4.019531 0.421875 -4.5625 C 0.421875 -5.113281 0.613281 -5.550781 1 -5.875 C 1.382812 -6.207031 1.929688 -6.375 2.640625 -6.375 C 2.890625 -6.375 3.171875 -6.347656 3.484375 -6.296875 C 3.796875 -6.253906 4.128906 -6.179688 4.484375 -6.078125 L 4.265625 -4.9375 C 3.554688 -5.070312 2.957031 -5.140625 2.46875 -5.140625 Z M 2.46875 -5.140625 "/></g></g></g><g clip-path="url(#0f9f1d7af0)"><g fill="#d9d9d9" fill-opacity="1"><g transform="translate(57.793517, 29.147616)"><g/></g></g></g><g clip-path="url(#e84bcbef9c)"><path fill="#006df0" d="M 23.132812 27.5625 C 17.808594 27.5625 13.492188 23.273438 13.492188 17.984375 C 13.492188 15.324219 14.582031 12.921875 16.339844 11.1875 C 15.554688 12.421875 15.097656 13.878906 15.097656 15.449219 C 15.097656 19.855469 18.695312 23.429688 23.132812 23.429688 C 27.566406 23.429688 31.164062 19.855469 31.164062 15.449219 C 31.164062 13.878906 30.707031 12.421875 29.921875 11.1875 C 31.679688 12.921875 32.769531 15.324219 32.769531 17.984375 C 32.769531 23.273438 28.453125 27.5625 23.132812 27.5625 " fill-opacity="1" fill-rule="nonzero"/></g><g clip-path="url(#6355d71791)"><path fill="#000000" d="M 23.132812 2.050781 C 16.089844 2.050781 10.382812 7.726562 10.382812 14.722656 C 10.382812 18.238281 11.824219 21.417969 14.148438 23.714844 C 13.109375 22.082031 12.507812 20.148438 12.507812 18.078125 C 12.507812 12.246094 17.261719 7.519531 23.132812 7.519531 C 29 7.519531 33.753906 12.246094 33.753906 18.078125 C 33.753906 20.148438 33.152344 22.082031 32.113281 23.714844 C 34.441406 21.417969 35.878906 18.238281 35.878906 14.722656 C 35.878906 7.726562 30.171875 2.050781 23.132812 2.050781 " fill-opacity="1" fill-rule="nonzero"/></g><g fill="#f6e7d8" fill-opacity="1"><g transform="translate(14.125106, 8.675605)"><g><path d="M -0.28125 -0.828125 L 0.234375 -0.203125 L 0.078125 -0.0625 L -0.59375 -0.875 L -0.34375 -1.078125 L 0.328125 -0.5625 L -0.0625 -1.3125 L 0.1875 -1.515625 L 0.859375 -0.703125 L 0.703125 -0.578125 L 0.1875 -1.203125 L 0.5625 -0.453125 L 0.390625 -0.3125 Z M -0.28125 -0.828125 "/></g></g></g><g fill="#f6e7d8" fill-opacity="1"><g transform="translate(15.473835, 7.620703)"><g><path d="M -0.328125 -1.03125 L 0.265625 -0.171875 L 0.078125 -0.046875 L -0.515625 -0.90625 Z M -0.328125 -1.03125 "/></g></g></g><g fill="#f6e7d8" fill-opacity="1"><g transform="translate(16.236496, 7.112312)"><g><path d="M -0.03125 -1.1875 C 0.0625 -1.238281 0.148438 -1.265625 0.234375 -1.265625 C 0.328125 -1.273438 0.410156 -1.25 0.484375 -1.1875 C 0.566406 -1.132812 0.632812 -1.0625 0.6875 -0.96875 C 0.71875 -0.90625 0.738281 -0.835938 0.75 -0.765625 C 0.769531 -0.703125 0.773438 -0.644531 0.765625 -0.59375 L 0.921875 -0.546875 L 0.875 -0.40625 L 0.71875 -0.4375 C 0.664062 -0.351562 0.59375 -0.285156 0.5 -0.234375 C 0.425781 -0.191406 0.34375 -0.171875 0.25 -0.171875 C 0.15625 -0.179688 0.0703125 -0.210938 0 -0.265625 C -0.0820312 -0.316406 -0.148438 -0.390625 -0.203125 -0.484375 C -0.253906 -0.578125 -0.28125 -0.671875 -0.28125 -0.765625 C -0.289062 -0.859375 -0.269531 -0.941406 -0.21875 -1.015625 C -0.164062 -1.085938 -0.101562 -1.144531 -0.03125 -1.1875 Z M 0.390625 -0.6875 L 0.5625 -0.640625 C 0.5625 -0.710938 0.539062 -0.789062 0.5 -0.875 C 0.445312 -0.96875 0.378906 -1.03125 0.296875 -1.0625 C 0.222656 -1.09375 0.144531 -1.082031 0.0625 -1.03125 C -0.0078125 -1 -0.0507812 -0.941406 -0.0625 -0.859375 C -0.0703125 -0.773438 -0.0507812 -0.6875 0 -0.59375 C 0.0507812 -0.488281 0.113281 -0.421875 0.1875 -0.390625 C 0.257812 -0.367188 0.332031 -0.375 0.40625 -0.40625 C 0.457031 -0.4375 0.492188 -0.460938 0.515625 -0.484375 L 0.359375 -0.53125 Z M 0.390625 -0.6875 "/></g></g></g><g fill="#f6e7d8" fill-opacity="1"><g transform="translate(17.67563, 6.350925)"><g><path d="M 0.5 -0.171875 C 0.46875 -0.148438 0.429688 -0.132812 0.390625 -0.125 C 0.347656 -0.125 0.304688 -0.125 0.265625 -0.125 C 0.234375 -0.132812 0.195312 -0.144531 0.15625 -0.15625 C 0.113281 -0.164062 0.078125 -0.1875 0.046875 -0.21875 C 0.015625 -0.257812 -0.0078125 -0.304688 -0.03125 -0.359375 L -0.3125 -1.015625 L -0.109375 -1.09375 L 0.171875 -0.4375 C 0.191406 -0.375 0.222656 -0.332031 0.265625 -0.3125 C 0.304688 -0.300781 0.359375 -0.3125 0.421875 -0.34375 C 0.484375 -0.363281 0.519531 -0.394531 0.53125 -0.4375 C 0.550781 -0.488281 0.550781 -0.539062 0.53125 -0.59375 L 0.25 -1.25 L 0.453125 -1.328125 L 0.734375 -0.671875 C 0.753906 -0.617188 0.765625 -0.566406 0.765625 -0.515625 C 0.773438 -0.472656 0.769531 -0.4375 0.75 -0.40625 C 0.726562 -0.375 0.703125 -0.335938 0.671875 -0.296875 C 0.648438 -0.265625 0.625 -0.238281 0.59375 -0.21875 C 0.5625 -0.195312 0.53125 -0.179688 0.5 -0.171875 Z M 0.5 -0.171875 "/></g></g></g><g fill="#f6e7d8" fill-opacity="1"><g transform="translate(19.117413, 5.784008)"><g><path d="M 0.1875 -0.53125 L 0.265625 -0.28125 L 0.8125 -0.4375 L 0.859375 -0.25 L 0.109375 -0.03125 L -0.1875 -1.03125 L 0.546875 -1.25 L 0.59375 -1.09375 L 0.0625 -0.9375 L 0.140625 -0.6875 L 0.625 -0.828125 L 0.671875 -0.671875 Z M 0.1875 -0.53125 "/></g></g></g><g fill="#f6e7d8" fill-opacity="1"><g transform="translate(20.543268, 5.39878)"><g><path d="M 0.109375 -1.09375 L 0.3125 -0.0625 L 0.09375 -0.015625 L -0.109375 -1.046875 Z M 0.109375 -1.09375 "/></g></g></g><g fill="#f6e7d8" fill-opacity="1"><g transform="translate(21.443658, 5.222984)"><g><path d="M 0.703125 -0.28125 L 0.3125 -0.234375 L 0.25 -0.03125 L 0.03125 0 L 0.28125 -1.09375 L 0.515625 -1.125 L 1.015625 -0.109375 L 0.796875 -0.09375 Z M 0.609375 -0.46875 L 0.4375 -0.859375 L 0.34375 -0.4375 Z M 0.609375 -0.46875 "/></g></g></g><g fill="#f6e7d8" fill-opacity="1"><g transform="translate(22.985711, 5.074477)"><g><path d="M 0.875 -0.734375 L 0.671875 -0.734375 C 0.671875 -0.785156 0.648438 -0.820312 0.609375 -0.84375 C 0.566406 -0.875 0.515625 -0.890625 0.453125 -0.890625 C 0.398438 -0.890625 0.351562 -0.878906 0.3125 -0.859375 C 0.28125 -0.835938 0.265625 -0.804688 0.265625 -0.765625 C 0.265625 -0.722656 0.28125 -0.691406 0.3125 -0.671875 C 0.34375 -0.660156 0.394531 -0.644531 0.46875 -0.625 L 0.625 -0.59375 C 0.726562 -0.570312 0.800781 -0.539062 0.84375 -0.5 C 0.882812 -0.457031 0.90625 -0.394531 0.90625 -0.3125 C 0.90625 -0.195312 0.867188 -0.109375 0.796875 -0.046875 C 0.722656 0.00390625 0.617188 0.03125 0.484375 0.03125 C 0.347656 0.03125 0.242188 0.00390625 0.171875 -0.046875 C 0.0976562 -0.109375 0.0546875 -0.195312 0.046875 -0.3125 L 0.25 -0.3125 C 0.257812 -0.257812 0.28125 -0.21875 0.3125 -0.1875 C 0.351562 -0.15625 0.410156 -0.140625 0.484375 -0.140625 C 0.554688 -0.140625 0.609375 -0.148438 0.640625 -0.171875 C 0.679688 -0.203125 0.703125 -0.238281 0.703125 -0.28125 C 0.703125 -0.320312 0.6875 -0.351562 0.65625 -0.375 C 0.625 -0.394531 0.570312 -0.414062 0.5 -0.4375 L 0.359375 -0.46875 C 0.253906 -0.476562 0.175781 -0.503906 0.125 -0.546875 C 0.0820312 -0.597656 0.0625 -0.664062 0.0625 -0.75 C 0.0625 -0.84375 0.09375 -0.914062 0.15625 -0.96875 C 0.21875 -1.03125 0.316406 -1.0625 0.453125 -1.0625 C 0.472656 -1.0625 0.492188 -1.0625 0.515625 -1.0625 C 0.546875 -1.0625 0.570312 -1.054688 0.59375 -1.046875 C 0.625 -1.046875 0.648438 -1.039062 0.671875 -1.03125 C 0.703125 -1.019531 0.726562 -1.003906 0.75 -0.984375 C 0.769531 -0.960938 0.789062 -0.941406 0.8125 -0.921875 C 0.832031 -0.898438 0.847656 -0.867188 0.859375 -0.828125 C 0.867188 -0.796875 0.875 -0.765625 0.875 -0.734375 Z M 0.875 -0.734375 "/></g></g></g><g fill="#f6e7d8" fill-opacity="1"><g transform="translate(24.462556, 5.095912)"><g/></g></g><g fill="#f6e7d8" fill-opacity="1"><g transform="translate(25.377259, 5.176007)"><g><path d="M 0.984375 -0.578125 L 0.78125 -0.609375 C 0.78125 -0.660156 0.765625 -0.703125 0.734375 -0.734375 C 0.703125 -0.765625 0.65625 -0.785156 0.59375 -0.796875 C 0.539062 -0.804688 0.492188 -0.800781 0.453125 -0.78125 C 0.410156 -0.769531 0.390625 -0.742188 0.390625 -0.703125 C 0.378906 -0.660156 0.390625 -0.628906 0.421875 -0.609375 C 0.453125 -0.585938 0.5 -0.5625 0.5625 -0.53125 L 0.703125 -0.5 C 0.804688 -0.457031 0.875 -0.410156 0.90625 -0.359375 C 0.9375 -0.316406 0.945312 -0.253906 0.9375 -0.171875 C 0.914062 -0.0546875 0.863281 0.0195312 0.78125 0.0625 C 0.707031 0.113281 0.609375 0.128906 0.484375 0.109375 C 0.347656 0.0859375 0.242188 0.046875 0.171875 -0.015625 C 0.109375 -0.0859375 0.0820312 -0.1875 0.09375 -0.3125 L 0.296875 -0.265625 C 0.296875 -0.210938 0.3125 -0.164062 0.34375 -0.125 C 0.375 -0.09375 0.425781 -0.0703125 0.5 -0.0625 C 0.570312 -0.0507812 0.625 -0.0546875 0.65625 -0.078125 C 0.695312 -0.0976562 0.722656 -0.128906 0.734375 -0.171875 C 0.742188 -0.210938 0.734375 -0.242188 0.703125 -0.265625 C 0.671875 -0.296875 0.625 -0.328125 0.5625 -0.359375 L 0.4375 -0.40625 C 0.332031 -0.4375 0.257812 -0.472656 0.21875 -0.515625 C 0.175781 -0.566406 0.164062 -0.632812 0.1875 -0.71875 C 0.195312 -0.8125 0.238281 -0.878906 0.3125 -0.921875 C 0.394531 -0.972656 0.503906 -0.988281 0.640625 -0.96875 C 0.660156 -0.96875 0.679688 -0.960938 0.703125 -0.953125 C 0.734375 -0.953125 0.757812 -0.945312 0.78125 -0.9375 C 0.800781 -0.925781 0.820312 -0.910156 0.84375 -0.890625 C 0.863281 -0.878906 0.882812 -0.863281 0.90625 -0.84375 C 0.925781 -0.820312 0.941406 -0.796875 0.953125 -0.765625 C 0.960938 -0.742188 0.96875 -0.710938 0.96875 -0.671875 C 0.976562 -0.640625 0.984375 -0.609375 0.984375 -0.578125 Z M 0.984375 -0.578125 "/></g></g></g><g fill="#f6e7d8" fill-opacity="1"><g transform="translate(26.824285, 5.4361)"><g><path d="M 0.734375 -0.015625 L 0.359375 -0.109375 L 0.234375 0.0625 L 0.03125 0.015625 L 0.671875 -0.90625 L 0.90625 -0.84375 L 0.984375 0.265625 L 0.765625 0.203125 Z M 0.75 -0.203125 L 0.71875 -0.625 L 0.484375 -0.265625 Z M 0.75 -0.203125 "/></g></g></g><g fill="#f6e7d8" fill-opacity="1"><g transform="translate(28.310028, 5.872109)"><g><path d="M 0.6875 0.265625 L 0.5625 -0.5625 L 0.296875 0.109375 L 0.09375 0.03125 L 0.484375 -0.9375 L 0.6875 -0.859375 L 0.8125 -0.046875 L 1.078125 -0.703125 L 1.28125 -0.625 L 0.890625 0.34375 Z M 0.6875 0.265625 "/></g></g></g><g fill="#f6e7d8" fill-opacity="1"><g transform="translate(29.739659, 6.471135)"><g><path d="M 0.890625 -0.53125 L 0.484375 0.25 L 0.3125 0.15625 L 0.71875 -0.625 L 0.421875 -0.78125 L 0.5 -0.921875 L 1.25 -0.53125 L 1.171875 -0.390625 Z M 0.890625 -0.53125 "/></g></g></g><g fill="#f6e7d8" fill-opacity="1"><g transform="translate(30.962195, 7.131758)"><g><path d="M 0.234375 -0.125 C 0.242188 -0.21875 0.273438 -0.304688 0.328125 -0.390625 C 0.390625 -0.484375 0.460938 -0.550781 0.546875 -0.59375 C 0.628906 -0.632812 0.710938 -0.65625 0.796875 -0.65625 C 0.890625 -0.664062 0.976562 -0.640625 1.0625 -0.578125 C 1.1875 -0.492188 1.257812 -0.382812 1.28125 -0.25 C 1.300781 -0.113281 1.265625 0.0234375 1.171875 0.171875 C 1.128906 0.234375 1.078125 0.28125 1.015625 0.3125 C 0.960938 0.351562 0.90625 0.382812 0.84375 0.40625 C 0.789062 0.4375 0.726562 0.441406 0.65625 0.421875 C 0.582031 0.410156 0.515625 0.382812 0.453125 0.34375 C 0.367188 0.28125 0.304688 0.207031 0.265625 0.125 C 0.234375 0.0507812 0.222656 -0.03125 0.234375 -0.125 Z M 0.953125 -0.421875 C 0.878906 -0.460938 0.800781 -0.472656 0.71875 -0.453125 C 0.632812 -0.441406 0.5625 -0.382812 0.5 -0.28125 C 0.4375 -0.1875 0.410156 -0.09375 0.421875 0 C 0.441406 0.0820312 0.488281 0.144531 0.5625 0.1875 C 0.632812 0.226562 0.707031 0.238281 0.78125 0.21875 C 0.851562 0.195312 0.921875 0.140625 0.984375 0.046875 C 1.046875 -0.0546875 1.070312 -0.148438 1.0625 -0.234375 C 1.0625 -0.316406 1.023438 -0.378906 0.953125 -0.421875 Z M 0.953125 -0.421875 "/></g></g></g><g fill="#f6e7d8" fill-opacity="1"><g transform="translate(32.299966, 8.061347)"><g><path d="M 1.140625 0 L 0.984375 -0.125 C 1.015625 -0.164062 1.023438 -0.210938 1.015625 -0.265625 C 1.003906 -0.316406 0.972656 -0.359375 0.921875 -0.390625 C 0.878906 -0.429688 0.835938 -0.453125 0.796875 -0.453125 C 0.753906 -0.460938 0.71875 -0.453125 0.6875 -0.421875 C 0.664062 -0.390625 0.660156 -0.351562 0.671875 -0.3125 C 0.691406 -0.28125 0.722656 -0.238281 0.765625 -0.1875 L 0.859375 -0.046875 C 0.921875 0.0234375 0.953125 0.09375 0.953125 0.15625 C 0.960938 0.21875 0.941406 0.28125 0.890625 0.34375 C 0.816406 0.425781 0.734375 0.46875 0.640625 0.46875 C 0.554688 0.46875 0.460938 0.425781 0.359375 0.34375 C 0.253906 0.257812 0.191406 0.171875 0.171875 0.078125 C 0.148438 -0.015625 0.171875 -0.109375 0.234375 -0.203125 L 0.390625 -0.078125 C 0.367188 -0.0351562 0.359375 0.00390625 0.359375 0.046875 C 0.367188 0.0976562 0.40625 0.148438 0.46875 0.203125 C 0.519531 0.242188 0.566406 0.265625 0.609375 0.265625 C 0.660156 0.273438 0.703125 0.265625 0.734375 0.234375 C 0.753906 0.203125 0.757812 0.164062 0.75 0.125 C 0.738281 0.09375 0.710938 0.0507812 0.671875 0 L 0.578125 -0.125 C 0.503906 -0.207031 0.460938 -0.28125 0.453125 -0.34375 C 0.453125 -0.40625 0.476562 -0.46875 0.53125 -0.53125 C 0.59375 -0.601562 0.664062 -0.640625 0.75 -0.640625 C 0.84375 -0.640625 0.941406 -0.597656 1.046875 -0.515625 C 1.066406 -0.492188 1.082031 -0.472656 1.09375 -0.453125 C 1.113281 -0.441406 1.128906 -0.425781 1.140625 -0.40625 C 1.160156 -0.382812 1.175781 -0.363281 1.1875 -0.34375 C 1.207031 -0.320312 1.21875 -0.296875 1.21875 -0.265625 C 1.21875 -0.234375 1.21875 -0.203125 1.21875 -0.171875 C 1.21875 -0.148438 1.207031 -0.117188 1.1875 -0.078125 C 1.175781 -0.046875 1.160156 -0.0195312 1.140625 0 Z M 1.140625 0 "/></g></g></g><g fill="#f6e7d8" fill-opacity="1"><g transform="translate(17.121661, 20.275619)"><g><path d="M 4.640625 -5.613281 C 3.917969 -5.953125 3.210938 -5.953125 3.148438 -5.953125 C 2.503906 -5.953125 1.882812 -6.332031 1.882812 -7.066406 C 1.882812 -7.875 2.453125 -8.292969 3.148438 -8.292969 C 3.804688 -8.292969 4.363281 -7.953125 4.386719 -7.230469 C 4.386719 -7.195312 4.449219 -7.128906 4.527344 -7.128906 L 6.105469 -7.128906 C 6.195312 -7.128906 6.257812 -7.195312 6.246094 -7.230469 C 6.21875 -8.949219 4.878906 -10.113281 3.148438 -10.113281 C 1.53125 -10.113281 0 -8.964844 0 -7.066406 C 0 -5.890625 0.59375 -4.992188 1.644531 -4.511719 C 2.375 -4.171875 3.058594 -4.171875 3.148438 -4.171875 C 3.71875 -4.148438 4.414062 -3.691406 4.414062 -2.945312 C 4.414062 -2.277344 3.816406 -1.820312 3.148438 -1.820312 C 3.148438 -1.820312 3.148438 -1.820312 3.136719 -1.820312 L 3.136719 0 C 3.148438 0 3.148438 0 3.148438 0 C 4.765625 0 6.285156 -1.050781 6.285156 -2.945312 C 6.285156 -4.132812 5.703125 -5.121094 4.640625 -5.613281 Z M 4.640625 -5.613281 "/></g></g></g><g fill="#f6e7d8" fill-opacity="1"><g transform="translate(23.721044, 20.275619)"><g><path d="M 2.085938 -6.449219 L 2.085938 -0.113281 C 2.085938 -0.0625 2.136719 0 2.226562 0 L 3.855469 0 C 3.945312 0 4.007812 -0.0625 4.007812 -0.113281 L 4.007812 -6.449219 Z M 0.140625 -8.382812 L 5.941406 -8.382812 C 6.03125 -8.382812 6.082031 -8.433594 6.082031 -8.496094 L 6.082031 -10 C 6.082031 -10.050781 6.03125 -10.113281 5.941406 -10.113281 L 0.140625 -10.113281 C 0.0625 -10.113281 0 -10.050781 0 -10 L 0 -8.496094 C 0 -8.433594 0.0625 -8.382812 0.140625 -8.382812 Z M 0.140625 -8.382812 "/></g></g></g><g fill="#f6e7d8" fill-opacity="1"><g transform="translate(16.836081, 23.973515)"><g><path d="M 0.484375 -0.203125 L 0.25 0.15625 L 0.078125 0.046875 L 0.609375 -0.765625 L 1.1875 -0.390625 L 1.09375 -0.25 L 0.6875 -0.515625 L 0.5625 -0.328125 L 0.921875 -0.09375 L 0.84375 0.03125 Z M 0.484375 -0.203125 "/></g></g></g><g fill="#f6e7d8" fill-opacity="1"><g transform="translate(17.98942, 24.689574)"><g><path d="M 0.671875 0.125 C 0.679688 0.101562 0.6875 0.0859375 0.6875 0.078125 C 0.695312 0.0664062 0.703125 0.0546875 0.703125 0.046875 C 0.722656 0.00390625 0.726562 -0.0234375 0.71875 -0.046875 C 0.707031 -0.0664062 0.6875 -0.0859375 0.65625 -0.109375 L 0.453125 -0.203125 L 0.28125 0.140625 L 0.09375 0.046875 L 0.515625 -0.828125 L 0.984375 -0.59375 C 1.023438 -0.582031 1.054688 -0.5625 1.078125 -0.53125 C 1.097656 -0.507812 1.113281 -0.484375 1.125 -0.453125 C 1.132812 -0.429688 1.140625 -0.40625 1.140625 -0.375 C 1.140625 -0.351562 1.132812 -0.332031 1.125 -0.3125 C 1.125 -0.289062 1.117188 -0.265625 1.109375 -0.234375 C 1.054688 -0.140625 0.96875 -0.0976562 0.84375 -0.109375 C 0.863281 -0.0859375 0.875 -0.0703125 0.875 -0.0625 C 0.882812 -0.0507812 0.894531 -0.0390625 0.90625 -0.03125 C 0.914062 -0.0195312 0.921875 -0.0078125 0.921875 0 C 0.921875 0 0.921875 0.00390625 0.921875 0.015625 C 0.921875 0.0351562 0.914062 0.0507812 0.90625 0.0625 C 0.90625 0.0703125 0.898438 0.0859375 0.890625 0.109375 C 0.878906 0.140625 0.867188 0.164062 0.859375 0.1875 C 0.847656 0.207031 0.832031 0.238281 0.8125 0.28125 C 0.800781 0.300781 0.796875 0.316406 0.796875 0.328125 C 0.796875 0.335938 0.804688 0.347656 0.828125 0.359375 L 0.8125 0.390625 L 0.625 0.296875 C 0.625 0.273438 0.625 0.253906 0.625 0.234375 C 0.632812 0.210938 0.648438 0.175781 0.671875 0.125 Z M 0.921875 -0.3125 C 0.929688 -0.332031 0.9375 -0.347656 0.9375 -0.359375 C 0.9375 -0.378906 0.929688 -0.394531 0.921875 -0.40625 C 0.910156 -0.425781 0.894531 -0.441406 0.875 -0.453125 C 0.863281 -0.460938 0.847656 -0.472656 0.828125 -0.484375 L 0.625 -0.578125 L 0.515625 -0.34375 L 0.71875 -0.25 C 0.738281 -0.238281 0.757812 -0.226562 0.78125 -0.21875 C 0.800781 -0.21875 0.816406 -0.21875 0.828125 -0.21875 C 0.847656 -0.21875 0.863281 -0.226562 0.875 -0.25 C 0.894531 -0.269531 0.910156 -0.289062 0.921875 -0.3125 Z M 0.921875 -0.3125 "/></g></g></g><g fill="#f6e7d8" fill-opacity="1"><g transform="translate(19.360549, 25.319018)"><g><path d="M 0.171875 -0.171875 C 0.160156 -0.253906 0.171875 -0.34375 0.203125 -0.4375 C 0.234375 -0.53125 0.273438 -0.609375 0.328125 -0.671875 C 0.390625 -0.734375 0.460938 -0.769531 0.546875 -0.78125 C 0.628906 -0.800781 0.710938 -0.800781 0.796875 -0.78125 C 0.941406 -0.726562 1.035156 -0.644531 1.078125 -0.53125 C 1.128906 -0.414062 1.128906 -0.28125 1.078125 -0.125 C 1.054688 -0.0625 1.023438 -0.0078125 0.984375 0.03125 C 0.953125 0.0820312 0.90625 0.125 0.84375 0.15625 C 0.789062 0.1875 0.734375 0.207031 0.671875 0.21875 C 0.609375 0.226562 0.539062 0.21875 0.46875 0.1875 C 0.382812 0.164062 0.316406 0.117188 0.265625 0.046875 C 0.210938 -0.015625 0.179688 -0.0859375 0.171875 -0.171875 Z M 0.734375 -0.609375 C 0.671875 -0.628906 0.601562 -0.617188 0.53125 -0.578125 C 0.46875 -0.535156 0.421875 -0.46875 0.390625 -0.375 C 0.359375 -0.28125 0.359375 -0.195312 0.390625 -0.125 C 0.421875 -0.0507812 0.46875 -0.00390625 0.53125 0.015625 C 0.613281 0.046875 0.6875 0.0390625 0.75 0 C 0.8125 -0.0390625 0.851562 -0.101562 0.875 -0.1875 C 0.914062 -0.289062 0.921875 -0.378906 0.890625 -0.453125 C 0.867188 -0.523438 0.816406 -0.578125 0.734375 -0.609375 Z M 0.734375 -0.609375 "/></g></g></g><g fill="#f6e7d8" fill-opacity="1"><g transform="translate(20.875776, 25.777777)"><g><path d="M 0.65625 0.125 L 0.421875 -0.609375 L 0.296875 0.046875 L 0.09375 0.015625 L 0.265625 -0.9375 L 0.46875 -0.90625 L 0.71875 -0.1875 L 0.828125 -0.828125 L 1.03125 -0.796875 L 0.859375 0.15625 Z M 0.65625 0.125 "/></g></g></g><g fill="#f6e7d8" fill-opacity="1"><g transform="translate(22.361924, 26.016149)"><g><path d="M 0.5625 -0.765625 L 0.515625 0.03125 L 0.3125 0.015625 L 0.359375 -0.78125 L 0.0625 -0.796875 L 0.078125 -0.96875 L 0.859375 -0.921875 L 0.84375 -0.75 Z M 0.5625 -0.765625 "/></g></g></g><g fill="#f6e7d8" fill-opacity="1"><g transform="translate(23.709878, 26.060271)"><g><path d="M 0.25 -0.96875 L 0.328125 -0.96875 L 0.09375 0.015625 L 0 0.015625 Z M 0.25 -0.96875 "/></g></g></g><g fill="#f6e7d8" fill-opacity="1"><g transform="translate(24.617335, 26.01334)"><g><path d="M 0.828125 -0.40625 C 0.835938 -0.375 0.835938 -0.347656 0.828125 -0.328125 C 0.816406 -0.304688 0.804688 -0.28125 0.796875 -0.25 C 0.785156 -0.21875 0.773438 -0.191406 0.765625 -0.171875 C 0.753906 -0.148438 0.726562 -0.128906 0.6875 -0.109375 C 0.644531 -0.0976562 0.597656 -0.0859375 0.546875 -0.078125 L 0.109375 -0.015625 L -0.03125 -0.96875 L 0.40625 -1.03125 C 0.445312 -1.039062 0.488281 -1.039062 0.53125 -1.03125 C 0.570312 -1.03125 0.601562 -1.019531 0.625 -1 C 0.644531 -0.976562 0.664062 -0.957031 0.6875 -0.9375 C 0.707031 -0.925781 0.71875 -0.910156 0.71875 -0.890625 C 0.726562 -0.878906 0.734375 -0.863281 0.734375 -0.84375 C 0.742188 -0.800781 0.738281 -0.757812 0.71875 -0.71875 C 0.707031 -0.6875 0.679688 -0.65625 0.640625 -0.625 C 0.753906 -0.570312 0.816406 -0.5 0.828125 -0.40625 Z M 0.203125 -0.828125 L 0.234375 -0.625 L 0.453125 -0.65625 C 0.492188 -0.65625 0.523438 -0.664062 0.546875 -0.6875 C 0.566406 -0.71875 0.570312 -0.75 0.5625 -0.78125 C 0.5625 -0.820312 0.546875 -0.84375 0.515625 -0.84375 C 0.492188 -0.851562 0.460938 -0.859375 0.421875 -0.859375 Z M 0.25 -0.46875 L 0.28125 -0.21875 L 0.515625 -0.25 C 0.566406 -0.257812 0.601562 -0.273438 0.625 -0.296875 C 0.644531 -0.316406 0.648438 -0.347656 0.640625 -0.390625 C 0.640625 -0.429688 0.625 -0.460938 0.59375 -0.484375 C 0.570312 -0.503906 0.535156 -0.507812 0.484375 -0.5 Z M 0.25 -0.46875 "/></g></g></g><g fill="#f6e7d8" fill-opacity="1"><g transform="translate(26.1041, 25.764259)"><g><path d="M 0.59375 -0.375 L 0.234375 -0.265625 L 0.21875 -0.0625 L 0.03125 -0.015625 L 0.09375 -1.03125 L 0.3125 -1.09375 L 0.90625 -0.25 L 0.703125 -0.203125 Z M 0.5 -0.515625 L 0.265625 -0.828125 L 0.25 -0.4375 Z M 0.5 -0.515625 "/></g></g></g><g fill="#f6e7d8" fill-opacity="1"><g transform="translate(27.545626, 25.323216)"><g><path d="M 0.40625 -0.875 C 0.394531 -0.882812 0.382812 -0.890625 0.375 -0.890625 C 0.375 -0.898438 0.367188 -0.910156 0.359375 -0.921875 C 0.347656 -0.929688 0.335938 -0.941406 0.328125 -0.953125 C 0.316406 -0.960938 0.300781 -0.96875 0.28125 -0.96875 C 0.257812 -0.96875 0.238281 -0.96875 0.21875 -0.96875 C 0.195312 -0.96875 0.175781 -0.960938 0.15625 -0.953125 C 0.0820312 -0.921875 0.0351562 -0.867188 0.015625 -0.796875 C -0.00390625 -0.722656 0.00390625 -0.632812 0.046875 -0.53125 C 0.0859375 -0.425781 0.140625 -0.359375 0.203125 -0.328125 C 0.265625 -0.296875 0.328125 -0.296875 0.390625 -0.328125 C 0.453125 -0.347656 0.492188 -0.378906 0.515625 -0.421875 C 0.535156 -0.472656 0.539062 -0.523438 0.53125 -0.578125 L 0.703125 -0.65625 C 0.742188 -0.5625 0.742188 -0.46875 0.703125 -0.375 C 0.660156 -0.28125 0.582031 -0.210938 0.46875 -0.171875 C 0.34375 -0.109375 0.226562 -0.101562 0.125 -0.15625 C 0.0195312 -0.21875 -0.0625 -0.320312 -0.125 -0.46875 C -0.1875 -0.601562 -0.203125 -0.726562 -0.171875 -0.84375 C -0.140625 -0.957031 -0.0625 -1.046875 0.0625 -1.109375 C 0.175781 -1.148438 0.273438 -1.15625 0.359375 -1.125 C 0.453125 -1.09375 0.523438 -1.035156 0.578125 -0.953125 Z M 0.40625 -0.875 "/></g></g></g><g fill="#f6e7d8" fill-opacity="1"><g transform="translate(28.917235, 24.697754)"><g><path d="M 0.078125 -0.4375 L 0.25 -0.15625 L 0.078125 -0.046875 L -0.421875 -0.875 L -0.25 -0.984375 L -0.03125 -0.625 L 0.078125 -1.171875 L 0.28125 -1.296875 L 0.171875 -0.734375 L 0.8125 -0.484375 L 0.625 -0.359375 L 0.125 -0.5625 Z M 0.078125 -0.4375 "/></g></g></g></svg>